<svg width="43" height="48" viewBox="0 0 43 48" xmlns="http://www.w3.org/2000/svg">
  <title>
    icon-disabled
  </title>
  <g fill-rule="nonzero" fill="#9B9B9B">
    <path d="M4.143 47.586l38.06-38.163c.465-.466.465-1.23 0-1.695l-1.33-1.33c-.465-.465-1.228-.465-1.695.002L1.12 44.563c-.467.467-.467 1.23 0 1.697l1.326 1.326c.467.467 1.23.467 1.697 0zM18.33 4.41h6.834c.66 0 1.2-.54 1.2-1.198v-1.88c0-.658-.54-1.198-1.2-1.198H18.33c-.66 0-1.2.54-1.2 1.2V3.21c0 .66.54 1.2 1.2 1.2zm3.36 1.56c-5.798 0-11.05 2.37-14.847 6.19l4.554 3.287c2.745-2.48 6.368-4.003 10.35-4.003 8.533 0 15.475 6.942 15.475 15.475 0 8.53-6.94 15.473-15.475 15.473-8.534 0-15.475-6.94-15.475-15.475 0-3.776 1.362-7.236 3.617-9.925L6.47 12.57C2.93 16.325.74 21.366.74 26.92c0 11.55 9.396 20.947 20.946 20.947S42.634 38.47 42.634 26.92c0-11.552-9.396-20.95-20.946-20.95h.002z"/>
    <path d="M19.245 29.08L11.67 19.3c-1.61 2.123-2.576 4.757-2.576 7.62 0 6.975 5.675 12.65 12.65 12.65 6.977 0 12.65-5.676 12.65-12.65 0-6.976-5.674-12.65-12.65-12.65-3.036 0-5.826 1.075-8.01 2.866l9.82 7.088c.953.588 1.603 1.63 1.603 2.833 0 1.827-1.48 3.31-3.31 3.31-1.06-.003-1.994-.51-2.602-1.286z"/>
  </g>
</svg>
