<svg width="42" height="48" viewBox="0 0 42 48" xmlns="http://www.w3.org/2000/svg">
  <title>
    icon-default
  </title>
  <g fill-rule="nonzero" fill="#4A4A4A">
    <path d="M17.64 4.41h6.835c.66 0 1.2-.54 1.2-1.198v-1.88c0-.658-.54-1.198-1.2-1.198H17.64c-.658 0-1.198.54-1.198 1.2V3.21c0 .66.54 1.2 1.2 1.2zM21 5.97c-5.797 0-11.05 2.37-14.846 6.19l4.554 3.287c2.745-2.48 6.368-4.003 10.35-4.003 8.533 0 15.475 6.942 15.475 15.475 0 8.532-6.94 15.474-15.475 15.474-8.534 0-15.475-6.94-15.475-15.475 0-3.776 1.362-7.236 3.617-9.925l-3.42-4.423C2.24 16.325.054 21.366.054 26.92.054 38.47 9.45 47.866 21 47.866S41.946 38.47 41.946 26.92C41.946 15.367 32.55 5.97 21 5.97z"/>
    <path d="M21.158 30.364c-1.06 0-1.994-.508-2.602-1.283l-.006.01-7.57-9.79c-1.608 2.122-2.574 4.756-2.574 7.618 0 6.976 5.675 12.65 12.65 12.65 6.977 0 12.65-5.675 12.65-12.65 0-6.975-5.674-12.65-12.65-12.65-3.036 0-5.826 1.076-8.01 2.867l9.82 7.088-.007.008c.96.58 1.608 1.622 1.608 2.825 0 1.827-1.48 3.31-3.31 3.31z"/>
  </g>
</svg>
